<svg width="171" height="62" viewBox="0 0 171 62" fill="none" xmlns="http://www.w3.org/2000/svg">
<g id="logo-voir">
<g id="logo-voir_2">
<g id="Group 3">
<mask id="mask0_0_1302" style="mask-type:luminance" maskUnits="userSpaceOnUse" x="0" y="0" width="90" height="61">
<path id="Clip 2" fill-rule="evenodd" clip-rule="evenodd" d="M0 0.719238H89.2492V60.9139H0V0.719238Z" fill="white"/>
</mask>
<g mask="url(#mask0_0_1302)">
<path id="Fill 1" fill-rule="evenodd" clip-rule="evenodd" d="M30.7006 54.2741C17.2106 54.7124 6.17873 43.6246 6.60602 30.0569C6.99204 17.7712 16.9363 7.76512 29.1493 7.36708C38.2875 7.06793 46.2919 12.0606 50.3767 19.5282H21.486L16.7918 46.3047H47.4087C43.2827 51.0079 37.3273 54.0568 30.7006 54.2741ZM89.2492 19.5282H53.2791C53.2318 19.4305 53.188 19.3328 53.1407 19.2364L53.8071 18.3048L55.9363 15.3194C55.3743 14.3707 54.771 13.4586 54.1143 12.5783L50.1485 13.5099L49.4444 13.6784C48.6736 12.792 47.8457 11.9592 46.9668 11.1864L47.0081 11.0056L48.0569 6.4904C47.189 5.83106 46.2749 5.22056 45.3366 4.65646L41.4388 7.46598C40.3997 6.94583 39.3157 6.49284 38.2001 6.11433L37.4195 1.35611C36.3707 1.08749 35.3001 0.873817 34.2064 0.71875L31.6766 4.81519C31.0976 4.77612 30.5161 4.75781 29.9262 4.75781C29.3386 4.75781 28.7535 4.77612 28.1757 4.81519L25.6448 0.71875C24.5523 0.873817 23.4816 1.08749 22.4316 1.35611L21.6547 6.11433C20.5367 6.49284 19.4563 6.94583 18.4136 7.46598L14.5206 4.65646C13.5762 5.22056 12.6694 5.83106 11.7942 6.4904L12.843 11.0056L12.8843 11.1864C12.0054 11.9592 11.1776 12.792 10.4067 13.6784L9.70267 13.5099L5.74051 12.5783C5.08379 13.4586 4.47685 14.3707 3.91845 15.3194L6.04399 18.3048L6.71041 19.2364C6.1933 20.2877 5.74051 21.3731 5.36542 22.4964L4.22072 22.6845L0.634867 23.2767C0.370238 24.3328 0.157806 25.4122 0 26.5123L3.21318 28.5172L4.07626 29.0569C4.03742 29.6393 4.01921 30.2254 4.01921 30.8175C4.01921 31.4085 4.03742 31.997 4.07626 32.577L3.38434 33.008L0 35.124C0.157806 36.2217 0.370238 37.3023 0.634867 38.3548L5.35571 39.1374L5.36542 39.1386C5.39698 39.2314 5.43461 39.3169 5.46617 39.4073C5.82306 40.4353 6.23335 41.4353 6.71041 42.3975L3.91845 46.3157C4.47685 47.2644 5.08379 48.1789 5.74051 49.0556L9.47567 48.1752L10.4067 47.9555C11.1776 48.8431 12.0054 49.6746 12.8843 50.4463L12.1887 53.4573L11.7942 55.1471C12.4449 55.6404 13.1368 56.0751 13.8287 56.5146C14.0593 56.6636 14.2803 56.8358 14.5206 56.9811L18.4124 54.1691C19.4551 54.6892 20.5355 55.141 21.6547 55.5207L22.4316 60.2802C23.4804 60.55 24.551 60.76 25.6448 60.9139L28.1757 56.8187C28.7535 56.8565 29.3374 56.8822 29.925 56.8822C30.5161 56.8822 31.0976 56.8565 31.6754 56.8187L34.2064 60.9139C35.2989 60.76 36.3707 60.55 37.4195 60.2802L38.2001 55.5207C39.3144 55.141 40.3984 54.6892 41.4375 54.1691L45.3366 56.9811C45.5709 56.8358 45.7881 56.6636 46.0248 56.5171C46.7168 56.0751 47.4087 55.6404 48.0569 55.1471L47.6648 53.4573L46.9668 50.4463C47.8457 49.6746 48.6724 48.8431 49.4432 47.9555L50.3791 48.1752L54.113 49.0556C54.7698 48.1789 55.3743 47.2644 55.9363 46.3157L55.9278 46.3047H84.5563L89.2492 19.5282Z" fill="url(#paint0_linear_0_1302)"/>
</g>
</g>
<path id="Fill 4" fill-rule="evenodd" clip-rule="evenodd" d="M17.3648 15.1145L12.6519 41.802H80.6872L85.4001 15.1145H17.3648Z" fill="#C41421"/>
<g id="Group 2">
<path id="Fill 6" fill-rule="evenodd" clip-rule="evenodd" d="M97.2966 16.5671C97.349 16.2768 97.2279 16.1317 96.9333 16.1317H95.6787L95.4977 17.1488H96.751C97.0457 17.1488 97.2179 17.0037 97.2704 16.7134L97.2966 16.5671ZM97.153 18.6001C97.2054 18.3111 97.0844 18.1647 96.7897 18.1647H95.3154L95.1331 19.1819H96.6075C96.9021 19.1819 97.0756 19.0368 97.128 18.7453L97.153 18.6001ZM94.5339 15.1145H97.4826C97.9645 15.1145 98.299 15.2227 98.4863 15.438C98.6735 15.6532 98.7285 15.9816 98.6498 16.4219C98.5974 16.7134 98.4925 16.9483 98.3315 17.1304C98.1704 17.3112 97.9907 17.4391 97.7909 17.5117C98.1704 17.6174 98.3939 17.8782 98.4613 18.2951C98.4838 18.4452 98.4775 18.6211 98.4426 18.8191C98.3565 19.2938 98.1817 19.6419 97.9158 19.8658C97.6499 20.0859 97.2766 20.1978 96.7947 20.1978H93.6238L94.5339 15.1145Z" fill="#2136AB"/>
<path id="Fill 8" fill-rule="evenodd" clip-rule="evenodd" d="M102.293 20.0548C101.275 20.1506 100.436 20.1978 99.7755 20.1978C99.3349 20.1978 99.0302 20.0875 98.8602 19.8681C98.6901 19.6486 98.6433 19.3056 98.7209 18.8376L99.101 16.5463C99.1843 16.0456 99.3509 15.6831 99.602 15.4564C99.8531 15.2297 100.215 15.1145 100.686 15.1145H103.113L102.947 16.1171H100.79C100.521 16.1171 100.362 16.2614 100.314 16.5463L99.9341 18.8376C99.9159 18.9479 99.9307 19.034 99.9809 19.0995C100.031 19.1637 100.103 19.1952 100.198 19.1952C100.293 19.1952 100.395 19.194 100.508 19.1916C100.621 19.1892 100.739 19.1855 100.861 19.1807C100.983 19.1758 101.106 19.171 101.231 19.1673C101.355 19.1625 101.516 19.1528 101.713 19.1383C101.911 19.1237 102.159 19.1067 102.454 19.0885L102.293 20.0548Z" fill="#2136AB"/>
<path id="Fill 10" fill-rule="evenodd" clip-rule="evenodd" d="M107.253 20.1978H103.113L104.032 15.1145H108.173L107.989 16.1317H105.192L105.014 17.1119H107.215L107.03 18.1278H104.83L104.639 19.1819H107.437L107.253 20.1978Z" fill="#2136AB"/>
<path id="Fill 12" fill-rule="evenodd" clip-rule="evenodd" d="M111.284 16.5671C111.334 16.2768 111.218 16.1317 110.935 16.1317H109.516L109.241 17.7281H110.659C110.942 17.7281 111.109 17.5842 111.159 17.294L111.284 16.5671ZM108.416 15.1145H111.392C111.887 15.1145 112.228 15.2301 112.413 15.4601C112.598 15.6901 112.647 16.0591 112.56 16.5671L112.435 17.294C112.347 17.8019 112.172 18.1709 111.907 18.3997C111.643 18.6309 111.263 18.7453 110.768 18.7453H109.066L108.817 20.1978H107.541L108.416 15.1145Z" fill="#2136AB"/>
<path id="Fill 14" fill-rule="evenodd" clip-rule="evenodd" d="M116.985 16.5264C117.035 16.2443 116.919 16.1032 116.636 16.1032H115.439C115.157 16.1032 114.991 16.2443 114.941 16.5264L114.544 18.7847C114.495 19.0669 114.611 19.2091 114.892 19.2091H116.09C116.372 19.2091 116.537 19.0669 116.588 18.7847L116.985 16.5264ZM117.856 18.7847C117.769 19.2785 117.593 19.6383 117.332 19.8631C117.07 20.0855 116.691 20.1978 116.199 20.1978H114.436C113.944 20.1978 113.605 20.0855 113.421 19.8631C113.237 19.6383 113.19 19.2785 113.276 18.7847L113.674 16.5264C113.76 16.0327 113.935 15.674 114.198 15.4504C114.459 15.2269 114.838 15.1145 115.331 15.1145H117.092C117.586 15.1145 117.924 15.2269 118.108 15.4504C118.291 15.674 118.34 16.0327 118.253 16.5264L117.856 18.7847Z" fill="#2136AB"/>
<path id="Fill 16" fill-rule="evenodd" clip-rule="evenodd" d="M121.904 20.0548C120.886 20.1506 120.047 20.1978 119.386 20.1978C118.946 20.1978 118.64 20.0875 118.471 19.8681C118.3 19.6486 118.254 19.3056 118.332 18.8376L118.712 16.5463C118.795 16.0456 118.962 15.6831 119.213 15.4564C119.464 15.2297 119.825 15.1145 120.297 15.1145H122.723L122.558 16.1171H120.401C120.131 16.1171 119.973 16.2614 119.925 16.5463L119.545 18.8376C119.526 18.9479 119.541 19.034 119.592 19.0995C119.643 19.1637 119.714 19.1952 119.808 19.1952C119.903 19.1952 120.006 19.194 120.119 19.1916C120.232 19.1892 120.349 19.1855 120.471 19.1807C120.594 19.1758 120.717 19.171 120.841 19.1673C120.966 19.1625 121.127 19.1528 121.324 19.1383C121.521 19.1237 121.769 19.1067 122.065 19.0885L121.904 20.0548Z" fill="#2136AB"/>
<path id="Fill 18" fill-rule="evenodd" clip-rule="evenodd" d="M126.332 20.0548C125.314 20.1506 124.475 20.1978 123.814 20.1978C123.374 20.1978 123.068 20.0875 122.899 19.8681C122.729 19.6486 122.682 19.3056 122.759 18.8376L123.14 16.5463C123.223 16.0456 123.39 15.6831 123.641 15.4564C123.892 15.2297 124.253 15.1145 124.725 15.1145H127.151L126.986 16.1171H124.829C124.559 16.1171 124.401 16.2614 124.353 16.5463L123.973 18.8376C123.954 18.9479 123.969 19.034 124.02 19.0995C124.07 19.1637 124.142 19.1952 124.236 19.1952C124.331 19.1952 124.434 19.194 124.547 19.1916C124.66 19.1892 124.777 19.1855 124.899 19.1807C125.022 19.1758 125.145 19.171 125.269 19.1673C125.394 19.1625 125.555 19.1528 125.752 19.1383C125.949 19.1237 126.197 19.1067 126.493 19.0885L126.332 20.0548Z" fill="#2136AB"/>
<path id="Fill 20" fill-rule="evenodd" clip-rule="evenodd" d="M131.36 20.1978H130.118L130.642 17.0763L128.462 20.1978H127.151L128.002 15.1145H129.244L128.722 18.2373L130.901 15.1145H132.212L131.36 20.1978Z" fill="#2136AB"/>
<path id="Fill 22" fill-rule="evenodd" clip-rule="evenodd" d="M134.849 14.9613C134.251 14.9613 134.005 14.6586 134.111 14.0531L134.147 13.8438H135.043L135.014 14.0188C135.001 14.0886 135.014 14.1465 135.051 14.1926C135.09 14.2399 135.144 14.2624 135.213 14.2624H135.42C135.488 14.2624 135.55 14.2399 135.604 14.1926C135.658 14.1465 135.692 14.0886 135.703 14.0188L135.734 13.8438H136.631L136.595 14.0531C136.49 14.6586 136.138 14.9613 135.54 14.9613H134.849ZM135.179 20.1979L135.702 17.1965L133.523 20.1979H132.212L133.063 15.3102H134.305L133.782 18.3128L135.962 15.3102H137.273L136.421 20.1979H135.179Z" fill="#2136AB"/>
<path id="Fill 24" fill-rule="evenodd" clip-rule="evenodd" d="M141.514 20.0548C140.496 20.1506 139.657 20.1978 138.996 20.1978C138.556 20.1978 138.25 20.0875 138.081 19.8681C137.911 19.6486 137.864 19.3056 137.942 18.8376L138.322 16.5463C138.405 16.0456 138.572 15.6831 138.823 15.4564C139.074 15.2297 139.436 15.1145 139.907 15.1145H142.334L142.168 16.1171H140.011C139.742 16.1171 139.583 16.2614 139.535 16.5463L139.155 18.8376C139.137 18.9479 139.152 19.034 139.202 19.0995C139.252 19.1637 139.324 19.1952 139.419 19.1952C139.513 19.1952 139.616 19.194 139.729 19.1916C139.842 19.1892 139.96 19.1855 140.082 19.1807C140.204 19.1758 140.327 19.171 140.451 19.1673C140.576 19.1625 140.737 19.1528 140.934 19.1383C141.132 19.1237 141.379 19.1067 141.675 19.0885L141.514 20.0548Z" fill="#2136AB"/>
<path id="Fill 26" fill-rule="evenodd" clip-rule="evenodd" d="M146.777 15.1145C146.893 15.1145 147.099 15.1388 147.394 15.186L147.227 16.1525H146.948C146.878 16.1525 146.811 16.1756 146.746 16.2216C146.683 16.2665 146.633 16.315 146.596 16.3684L145.71 17.6574L146.635 20.1978H145.306L144.574 18.1582H143.943L143.593 20.1978H142.334L143.196 15.186H144.455L144.116 17.1554H144.747L145.68 15.7948C145.818 15.5947 145.973 15.431 146.146 15.3049C146.319 15.1776 146.529 15.1145 146.777 15.1145Z" fill="#2136AB"/>
<path id="Fill 28" fill-rule="evenodd" clip-rule="evenodd" d="M150.512 16.5264C150.562 16.2443 150.447 16.1032 150.164 16.1032H148.966C148.685 16.1032 148.519 16.2443 148.469 16.5264L148.071 18.7847C148.022 19.0669 148.138 19.2091 148.42 19.2091H149.618C149.899 19.2091 150.065 19.0669 150.115 18.7847L150.512 16.5264ZM151.383 18.7847C151.296 19.2785 151.121 19.6383 150.86 19.8631C150.597 20.0855 150.219 20.1978 149.726 20.1978H147.964C147.471 20.1978 147.132 20.0855 146.949 19.8631C146.765 19.6383 146.717 19.2785 146.803 18.7847L147.202 16.5264C147.287 16.0327 147.463 15.674 147.725 15.4504C147.987 15.2269 148.366 15.1145 148.859 15.1145H150.621C151.114 15.1145 151.451 15.2269 151.635 15.4504C151.819 15.674 151.868 16.0327 151.781 16.5264L151.383 18.7847Z" fill="#2136AB"/>
<path id="Fill 30" fill-rule="evenodd" clip-rule="evenodd" d="M155.962 20.1978H151.822L152.742 15.1145H156.883L156.699 16.1317H153.902L153.724 17.1119H155.924L155.74 18.1278H153.539L153.348 19.1819H156.147L155.962 20.1978Z" fill="#2136AB"/>
<path id="Fill 32" fill-rule="evenodd" clip-rule="evenodd" d="M96.1098 24.7869C96.1599 24.5048 96.043 24.3637 95.7614 24.3637H94.5636C94.282 24.3637 94.1162 24.5048 94.0661 24.7869L93.6688 27.0464C93.6186 27.3286 93.7344 27.4696 94.0171 27.4696H95.2138C95.4966 27.4696 95.6624 27.3286 95.7125 27.0464L96.1098 24.7869ZM96.9796 27.0464C96.8937 27.5402 96.7183 27.8988 96.4558 28.1224C96.1933 28.346 95.8163 28.4583 95.3224 28.4583H93.5614C93.0686 28.4583 92.7286 28.346 92.5461 28.1224C92.3623 27.8988 92.3134 27.5402 92.4005 27.0464L92.799 24.7869C92.8849 24.2932 93.0591 23.9333 93.3216 23.7097C93.584 23.4862 93.9623 23.375 94.4562 23.375H96.2172C96.7099 23.375 97.0488 23.4862 97.2325 23.7097C97.4162 23.9333 97.464 24.2932 97.3781 24.7869L96.9796 27.0464Z" fill="#2136AB"/>
<path id="Fill 34" fill-rule="evenodd" clip-rule="evenodd" d="M101.004 26.7881C101.057 26.499 100.934 26.3527 100.636 26.3527H99.1434L98.9463 27.4412H100.438C100.736 27.4412 100.912 27.296 100.965 27.007L101.004 26.7881ZM99.3278 25.3355H101.117C101.639 25.3355 101.998 25.4499 102.192 25.6811C102.387 25.9111 102.438 26.2801 102.346 26.7881L102.307 27.007C102.215 27.515 102.031 27.8852 101.753 28.114C101.474 28.3452 101.074 28.4583 100.553 28.4583H97.4194L98.3401 23.375H102.48L102.296 24.3922H99.4983L99.3278 25.3355Z" fill="#2136AB"/>
<path id="Fill 36" fill-rule="evenodd" clip-rule="evenodd" d="M102.48 28.8333L103.336 24.0105H104.584L103.9 27.8685H105.079L105.763 24.0105H107.012L106.327 27.8685H107.506L108.19 24.0105H109.439L108.754 27.8685H109.273L108.943 29.7292H107.765L107.855 28.8333H102.48Z" fill="#2136AB"/>
<path id="Fill 38" fill-rule="evenodd" clip-rule="evenodd" d="M114.211 28.4583H110.071L110.992 23.375H115.132L114.948 24.3919H112.151L111.973 25.3719H114.173L113.989 26.3888H111.788L111.597 27.4414H114.396L114.211 28.4583Z" fill="#2136AB"/>
<path id="Fill 40" fill-rule="evenodd" clip-rule="evenodd" d="M118.107 28.3165C117.089 28.4123 116.251 28.4583 115.59 28.4583C115.15 28.4583 114.845 28.348 114.675 28.1309C114.505 27.9102 114.458 27.5671 114.536 27.099L114.916 24.8059C114.999 24.3051 115.166 23.9425 115.417 23.7157C115.668 23.489 116.029 23.375 116.502 23.375H118.928L118.761 24.3778H116.604C116.335 24.3778 116.177 24.5209 116.129 24.8059L115.749 27.099C115.73 27.2093 115.746 27.2954 115.795 27.3609C115.847 27.4252 115.918 27.4567 116.012 27.4567C116.107 27.4567 116.21 27.4555 116.323 27.4531C116.436 27.4519 116.553 27.447 116.675 27.4409C116.797 27.4373 116.921 27.4325 117.045 27.4288C117.169 27.424 117.33 27.4143 117.528 27.3985C117.726 27.3839 117.973 27.3682 118.268 27.3488L118.107 28.3165Z" fill="#2136AB"/>
<path id="Fill 42" fill-rule="evenodd" clip-rule="evenodd" d="M121.625 28.4583H120.349L121.049 24.3919H119.56L119.735 23.375H123.988L123.813 24.3919H122.325L121.625 28.4583Z" fill="#2136AB"/>
<path id="Fill 44" fill-rule="evenodd" clip-rule="evenodd" d="M127.028 24.8272C127.081 24.5382 126.96 24.3919 126.665 24.3919H125.411L125.23 25.4101H126.483C126.778 25.4101 126.951 25.2637 127.002 24.9723L127.028 24.8272ZM126.886 26.861C126.937 26.5708 126.816 26.4245 126.522 26.4245H125.047L124.865 27.4414H126.339C126.635 27.4414 126.807 27.2963 126.86 27.0061L126.886 26.861ZM124.267 23.375H127.216C127.696 23.375 128.031 23.4832 128.218 23.6984C128.405 23.9136 128.46 24.2419 128.382 24.6821C128.331 24.9723 128.223 25.2096 128.063 25.3904C127.902 25.5724 127.724 25.699 127.523 25.7728C127.902 25.8785 128.126 26.1392 128.193 26.5549C128.216 26.7061 128.209 26.8807 128.174 27.0787C128.09 27.5533 127.914 27.9013 127.648 28.1251C127.382 28.3464 127.008 28.4583 126.527 28.4583H123.356L124.267 23.375Z" fill="#2136AB"/>
<path id="Fill 46" fill-rule="evenodd" clip-rule="evenodd" d="M132.168 24.7869C132.218 24.5048 132.101 24.3637 131.819 24.3637H130.621C130.34 24.3637 130.174 24.5048 130.124 24.7869L129.727 27.0464C129.676 27.3286 129.792 27.4696 130.075 27.4696H131.273C131.554 27.4696 131.72 27.3286 131.77 27.0464L132.168 24.7869ZM133.037 27.0464C132.951 27.5402 132.776 27.8988 132.514 28.1224C132.251 28.346 131.874 28.4583 131.38 28.4583H129.619C129.126 28.4583 128.786 28.346 128.604 28.1224C128.42 27.8988 128.371 27.5402 128.458 27.0464L128.857 24.7869C128.943 24.2932 129.117 23.9333 129.379 23.7097C129.642 23.4862 130.02 23.375 130.514 23.375H132.275C132.768 23.375 133.107 23.4862 133.29 23.7097C133.474 23.9333 133.522 24.2932 133.436 24.7869L133.037 27.0464Z" fill="#2136AB"/>
<path id="Fill 48" fill-rule="evenodd" clip-rule="evenodd" d="M95.3024 37.3541H94.0603L94.5837 34.232L92.4045 37.3541H91.0934L91.9453 32.2708H93.1874L92.6639 35.3928L94.8431 32.2708H96.1542L95.3024 37.3541Z" fill="#2136AB"/>
<path id="Fill 50" fill-rule="evenodd" clip-rule="evenodd" d="M95.7034 36.2448C96.9834 36.3163 97.8909 36.3527 98.4246 36.3527C98.5406 36.3527 98.6386 36.32 98.7198 36.2557C98.7997 36.1915 98.8513 36.1042 98.8719 35.9951L98.9248 35.7077C98.9789 35.4216 98.8539 35.2786 98.5497 35.2786H96.7217L96.91 34.276H98.5845C98.8887 34.276 99.0679 34.1329 99.122 33.8456L99.1491 33.7037C99.2032 33.4164 99.0769 33.2734 98.7727 33.2734H96.3363L96.5245 32.2708H99.3412C99.8388 32.2708 100.184 32.3774 100.378 32.5896C100.571 32.803 100.628 33.1255 100.546 33.5595C100.492 33.8456 100.379 34.0796 100.206 34.2578C100.032 34.4372 99.8259 34.5621 99.5835 34.6336C99.9754 34.7391 100.205 34.9961 100.276 35.4071C100.299 35.555 100.293 35.7271 100.255 35.9235L100.242 35.9951C100.155 36.4618 99.9728 36.8061 99.6982 37.0255C99.4237 37.245 99.0369 37.3541 98.5406 37.3541C97.6924 37.3541 96.6869 37.3068 95.5216 37.211L95.7034 36.2448Z" fill="#2136AB"/>
<path id="Fill 52" fill-rule="evenodd" clip-rule="evenodd" d="M104.333 33.6827C104.383 33.4017 104.266 33.2594 103.985 33.2594H102.787C102.506 33.2594 102.34 33.4017 102.29 33.6827L101.892 35.9434C101.842 36.2243 101.959 36.3654 102.241 36.3654H103.438C103.72 36.3654 103.886 36.2243 103.936 35.9434L104.333 33.6827ZM105.203 35.9434C105.117 36.4371 104.942 36.7958 104.68 37.0193C104.417 37.2441 104.04 37.3541 103.546 37.3541H101.785C101.292 37.3541 100.952 37.2441 100.77 37.0193C100.586 36.7958 100.537 36.4371 100.624 35.9434L101.023 33.6827C101.109 33.1889 101.283 32.8303 101.546 32.6079C101.808 32.3831 102.186 32.2708 102.68 32.2708H104.441C104.933 32.2708 105.272 32.3831 105.456 32.6079C105.639 32.8303 105.688 33.1889 105.601 33.6827L105.203 35.9434Z" fill="#2136AB"/>
<path id="Fill 54" fill-rule="evenodd" clip-rule="evenodd" d="M109.227 35.6842C109.28 35.394 109.158 35.2489 108.86 35.2489H107.367L107.17 36.3372H108.662C108.96 36.3372 109.135 36.1921 109.188 35.9019L109.227 35.6842ZM107.551 34.232H109.341C109.864 34.232 110.221 34.3464 110.416 34.5763C110.612 34.8063 110.662 35.1764 110.57 35.6842L110.531 35.9019C110.439 36.4097 110.254 36.7798 109.976 37.0098C109.697 37.2397 109.298 37.3541 108.777 37.3541H105.643L106.564 32.2708H110.704L110.519 33.2877H107.722L107.551 34.232Z" fill="#2136AB"/>
<path id="Fill 56" fill-rule="evenodd" clip-rule="evenodd" d="M114.447 33.723C114.497 33.4328 114.38 33.2877 114.096 33.2877H112.679L112.404 34.885H113.822C114.105 34.885 114.272 34.7399 114.322 34.4497L114.447 33.723ZM111.579 32.2708H114.555C115.05 32.2708 115.391 32.3851 115.576 32.6151C115.761 32.845 115.81 33.2151 115.722 33.723L115.598 34.4497C115.51 34.9575 115.334 35.3264 115.07 35.5564C114.806 35.7863 114.425 35.9019 113.93 35.9019H112.229L111.98 37.3541H110.704L111.579 32.2708Z" fill="#2136AB"/>
<path id="Fill 58" fill-rule="evenodd" clip-rule="evenodd" d="M119.904 37.3541H115.765L116.686 32.2708H120.825L120.641 33.2864H117.844L117.666 34.2665H119.867L119.682 35.2834H117.481L117.291 36.3372H120.089L119.904 37.3541Z" fill="#2136AB"/>
<path id="Fill 60" fill-rule="evenodd" clip-rule="evenodd" d="M122.89 37.3541H121.614L122.314 33.2864H120.825L121.001 32.2708H125.254L125.078 33.2864H123.59L122.89 37.3541Z" fill="#2136AB"/>
<path id="Fill 62" fill-rule="evenodd" clip-rule="evenodd" d="M126.276 35.5022H127.385L127.117 33.7943L126.276 35.5022ZM125.34 37.3541H123.988L126.682 32.2708H128.068L129.049 37.3541H127.697L127.539 36.4466H125.805L125.34 37.3541Z" fill="#2136AB"/>
<path id="Fill 64" fill-rule="evenodd" clip-rule="evenodd" d="M131.746 37.3541H130.47L131.17 33.2864H129.682L129.857 32.2708H134.11L133.935 33.2864H132.446L131.746 37.3541Z" fill="#2136AB"/>
<path id="Fill 66" fill-rule="evenodd" clip-rule="evenodd" d="M137.617 37.3541H133.477L134.398 32.2708H138.538L138.354 33.2864H135.557L135.378 34.2665H137.579L137.395 35.2834H135.194L135.003 36.3372H137.801L137.617 37.3541Z" fill="#2136AB"/>
<path id="Fill 68" fill-rule="evenodd" clip-rule="evenodd" d="M139.471 37.0571C139.242 37.2559 138.983 37.3541 138.699 37.3541C138.414 37.3541 138.149 37.3311 137.905 37.2838L138.076 36.3163H138.396C138.486 36.3163 138.567 36.2848 138.637 36.2242C138.707 36.1611 138.753 36.0848 138.773 35.9938L139.641 32.2708H143.599L142.719 37.2838H141.435L142.139 33.2734H140.641L139.942 36.2448C139.857 36.5879 139.701 36.8595 139.471 37.0571Z" fill="#2136AB"/>
<path id="Fill 70" fill-rule="evenodd" clip-rule="evenodd" d="M147.739 37.3541H143.599L144.52 32.2708H148.659L148.475 33.2864H145.678L145.5 34.2665H147.701L147.516 35.2834H145.316L145.125 36.3372H147.923L147.739 37.3541Z" fill="#2136AB"/>
<path id="Fill 72" fill-rule="evenodd" clip-rule="evenodd" d="M150.664 32.1162C150.066 32.1162 149.819 31.8135 149.926 31.2081L149.962 31H150.858L150.829 31.1738C150.816 31.2448 150.829 31.3027 150.867 31.3488C150.905 31.3961 150.959 31.4174 151.028 31.4174H151.234C151.303 31.4174 151.365 31.3961 151.419 31.3488C151.473 31.3027 151.507 31.2448 151.518 31.1738L151.549 31H152.446L152.41 31.2081C152.305 31.8135 151.953 32.1162 151.355 32.1162H150.664ZM150.994 37.3542L151.517 34.3521L149.338 37.3542H148.027L148.879 32.465H150.121L149.597 35.4683L151.777 32.465H153.088L152.236 37.3542H150.994Z" fill="#2136AB"/>
<path id="Fill 74" fill-rule="evenodd" clip-rule="evenodd" d="M159.827 37.3541H158.585L159.108 34.232L156.929 37.3541H155.618L156.47 32.2708H157.712L157.188 35.3928L159.368 32.2708H160.679L159.827 37.3541Z" fill="#2136AB"/>
<path id="Fill 76" fill-rule="evenodd" clip-rule="evenodd" d="M92.9387 42.619C92.9891 42.33 92.8715 42.1837 92.5882 42.1837H91.171L90.8962 43.781H92.3134C92.5966 43.781 92.7634 43.6359 92.8138 43.3457L92.9387 42.619ZM90.0705 41.1667H93.0467C93.5423 41.1667 93.8831 41.2811 94.0679 41.5123C94.2527 41.741 94.3019 42.1099 94.2143 42.619L94.0895 43.3457C94.0019 43.8535 93.8255 44.2236 93.5615 44.4523C93.2975 44.6835 92.9183 44.7979 92.4226 44.7979H90.721L90.4713 46.2501H89.1957L90.0705 41.1667Z" fill="#2136AB"/>
<path id="Fill 78" fill-rule="evenodd" clip-rule="evenodd" d="M95.9118 44.3982H97.0212L96.7535 42.6903L95.9118 44.3982ZM94.9762 46.2501H93.6238L96.3168 41.1667H97.7032L98.6846 46.2501H97.3334L97.1738 45.3426H95.4411L94.9762 46.2501Z" fill="#2136AB"/>
<path id="Fill 80" fill-rule="evenodd" clip-rule="evenodd" d="M99.3172 45.9895L100.169 41.1667H101.411L100.73 45.0247H102.455L103.137 41.1667H104.378L103.697 45.0247H104.214L103.886 46.8855H102.713L102.802 45.9895H99.3172Z" fill="#2136AB"/>
<path id="Fill 82" fill-rule="evenodd" clip-rule="evenodd" d="M108.587 46.2501H107.345L107.868 43.128L105.689 46.2501H104.378L105.23 41.1667H106.472L105.948 44.2888L108.128 41.1667H109.439L108.587 46.2501Z" fill="#2136AB"/>
<path id="Fill 84" fill-rule="evenodd" clip-rule="evenodd" d="M113.189 42.5798C113.239 42.2977 113.122 42.1566 112.841 42.1566H111.643C111.361 42.1566 111.196 42.2977 111.146 42.5798L110.748 44.8394C110.698 45.1215 110.815 45.2614 111.097 45.2614H112.294C112.576 45.2614 112.742 45.1215 112.792 44.8394L113.189 42.5798ZM114.059 44.8394C113.973 45.3331 113.798 45.693 113.536 45.9153C113.273 46.1401 112.896 46.2501 112.402 46.2501H110.641C110.148 46.2501 109.808 46.1401 109.626 45.9153C109.442 45.693 109.394 45.3331 109.48 44.8394L109.878 42.5798C109.964 42.0861 110.139 41.7274 110.402 41.5027C110.664 41.2803 111.042 41.1667 111.536 41.1667H113.297C113.789 41.1667 114.128 41.2803 114.312 41.5027C114.496 41.7274 114.545 42.0861 114.458 42.5798L114.059 44.8394Z" fill="#2136AB"/>
<path id="Fill 86" fill-rule="evenodd" clip-rule="evenodd" d="M119.341 46.2501H118.099L118.446 44.1794H116.72L116.374 46.2501H115.132L115.984 41.1667H117.226L116.891 43.1625H118.616L118.951 41.1667H120.193L119.341 46.2501Z" fill="#2136AB"/>
<path id="Fill 88" fill-rule="evenodd" clip-rule="evenodd" d="M121.848 44.3982H122.957L122.69 42.6903L121.848 44.3982ZM120.913 46.2501H119.56L122.253 41.1667H123.64L124.621 46.2501H123.27L123.11 45.3426H121.377L120.913 46.2501Z" fill="#2136AB"/>
<path id="Fill 90" fill-rule="evenodd" clip-rule="evenodd" d="M126.187 45.9531C125.957 46.1507 125.699 46.2501 125.414 46.2501C125.129 46.2501 124.865 46.2283 124.621 46.1798L124.791 45.2135H125.112C125.203 45.2135 125.282 45.1808 125.352 45.1202C125.423 45.0584 125.468 44.9808 125.489 44.8898L126.357 41.1667H130.314L129.434 46.1798H128.151L128.855 42.1694H127.357L126.658 45.1408C126.573 45.4839 126.416 45.7554 126.187 45.9531Z" fill="#2136AB"/>
<path id="Fill 92" fill-rule="evenodd" clip-rule="evenodd" d="M135.156 46.2501H133.914L134.437 43.128L132.258 46.2501H130.947L131.799 41.1667H133.041L132.517 44.2888L134.697 41.1667H136.008L135.156 46.2501Z" fill="#2136AB"/>
<path id="Fill 94" fill-rule="evenodd" clip-rule="evenodd" d="M135.557 45.1408C136.837 45.2123 137.744 45.2487 138.278 45.2487C138.394 45.2487 138.492 45.216 138.573 45.1517C138.653 45.0874 138.705 45.0002 138.725 44.8898L138.778 44.6037C138.832 44.3176 138.707 44.1746 138.403 44.1746H136.575L136.763 43.172H138.438C138.742 43.172 138.921 43.0289 138.975 42.7428L139.002 42.5997C139.056 42.3124 138.93 42.1694 138.626 42.1694H136.19L136.378 41.1667H139.194C139.692 41.1667 140.037 41.2746 140.231 41.4856C140.425 41.699 140.481 42.0214 140.4 42.4555C140.345 42.7428 140.232 42.9756 140.059 43.1538C139.885 43.3332 139.679 43.4581 139.437 43.5308C139.829 43.6351 140.058 43.8921 140.129 44.3031C140.152 44.451 140.146 44.6231 140.108 44.8195L140.095 44.8898C140.008 45.3578 139.826 45.7021 139.551 45.9227C139.277 46.141 138.89 46.2501 138.394 46.2501C137.546 46.2501 136.54 46.2028 135.375 46.107L135.557 45.1408Z" fill="#2136AB"/>
<path id="Fill 96" fill-rule="evenodd" clip-rule="evenodd" d="M142.091 44.3982H143.2L142.933 42.6903L142.091 44.3982ZM141.156 46.2501H139.803L142.496 41.1667H143.883L144.864 46.2501H143.513L143.353 45.3426H141.62L141.156 46.2501Z" fill="#2136AB"/>
<path id="Fill 98" fill-rule="evenodd" clip-rule="evenodd" d="M147.561 46.2501H146.285L146.985 42.1824H145.496L145.672 41.1667H149.925L149.749 42.1824H148.261L147.561 46.2501Z" fill="#2136AB"/>
<path id="Fill 100" fill-rule="evenodd" clip-rule="evenodd" d="M153.043 42.5798C153.093 42.2977 152.977 42.1566 152.694 42.1566H151.497C151.215 42.1566 151.049 42.2977 150.999 42.5798L150.602 44.8394C150.552 45.1215 150.669 45.2614 150.95 45.2614H152.148C152.43 45.2614 152.595 45.1215 152.646 44.8394L153.043 42.5798ZM153.912 44.8394C153.827 45.3331 153.651 45.693 153.39 45.9153C153.126 46.1401 152.749 46.2501 152.255 46.2501H150.495C150.002 46.2501 149.662 46.1401 149.479 45.9153C149.296 45.693 149.247 45.3331 149.334 44.8394L149.732 42.5798C149.818 42.0861 149.992 41.7274 150.256 41.5027C150.517 41.2803 150.895 41.1667 151.389 41.1667H153.15C153.643 41.1667 153.982 41.2803 154.165 41.5027C154.349 41.7274 154.398 42.0861 154.311 42.5798L153.912 44.8394Z" fill="#2136AB"/>
<path id="Fill 102" fill-rule="evenodd" clip-rule="evenodd" d="M158.728 42.619C158.779 42.33 158.661 42.1837 158.378 42.1837H156.961L156.686 43.781H158.103C158.386 43.781 158.553 43.6359 158.604 43.3457L158.728 42.619ZM155.86 41.1667H158.836C159.332 41.1667 159.673 41.2811 159.858 41.5123C160.042 41.741 160.092 42.1099 160.004 42.619L159.879 43.3457C159.792 43.8535 159.615 44.2236 159.351 44.4523C159.087 44.6835 158.708 44.7979 158.212 44.7979H156.511L156.261 46.2501H154.985L155.86 41.1667Z" fill="#2136AB"/>
<path id="Fill 104" fill-rule="evenodd" clip-rule="evenodd" d="M163.797 42.5798C163.847 42.2977 163.731 42.1566 163.449 42.1566H162.251C161.969 42.1566 161.803 42.2977 161.753 42.5798L161.356 44.8394C161.306 45.1215 161.423 45.2614 161.704 45.2614H162.902C163.184 45.2614 163.35 45.1215 163.4 44.8394L163.797 42.5798ZM164.668 44.8394C164.581 45.3331 164.405 45.693 164.144 45.9153C163.88 46.1401 163.503 46.2501 163.01 46.2501H161.249C160.756 46.2501 160.416 46.1401 160.234 45.9153C160.05 45.693 160.001 45.3331 160.088 44.8394L160.486 42.5798C160.574 42.0861 160.747 41.7274 161.01 41.5027C161.271 41.2803 161.65 41.1667 162.143 41.1667H163.904C164.397 41.1667 164.736 41.2803 164.919 41.5027C165.103 41.7274 165.152 42.0861 165.065 42.5798L164.668 44.8394Z" fill="#2136AB"/>
<path id="Fill 106" fill-rule="evenodd" clip-rule="evenodd" d="M168.542 42.4625C168.596 42.1639 168.472 42.0126 168.173 42.0126H166.903L166.718 43.0636H167.988C168.287 43.0636 168.463 42.9124 168.516 42.6125L168.542 42.4625ZM168.397 44.5645C168.45 44.2633 168.327 44.1133 168.029 44.1133H166.535L166.35 45.1643H167.844C168.143 45.1643 168.318 45.0144 168.372 44.7144L168.397 44.5645ZM165.743 40.9617H168.731C169.219 40.9617 169.558 41.0735 169.748 41.2959C169.938 41.5183 169.994 41.8576 169.914 42.3126C169.861 42.6125 169.753 42.8578 169.591 43.0446C169.428 43.2314 169.246 43.3635 169.043 43.4398C169.428 43.5478 169.654 43.8185 169.723 44.2493C169.746 44.4044 169.739 44.5835 169.703 44.7894C169.617 45.28 169.438 45.6396 169.17 45.8709C168.9 46.0996 168.521 46.2153 168.033 46.2153H164.82L165.743 40.9617Z" fill="#2136AB"/>
</g>
<path id="Fill 109" fill-rule="evenodd" clip-rule="evenodd" d="M24.321 35.8735C24.3578 35.6616 24.2716 35.5562 24.06 35.5562H23.1617C22.9501 35.5562 22.826 35.6616 22.7892 35.8735L22.4915 37.5665C22.4535 37.7785 22.5409 37.8851 22.7525 37.8851H23.6495C23.8611 37.8851 23.9853 37.7785 24.0233 37.5665L24.321 35.8735ZM24.9748 37.5665C24.9089 37.9371 24.7784 38.2062 24.5808 38.3737C24.3844 38.5412 24.1006 38.625 23.7306 38.625H22.4104C22.0404 38.625 21.787 38.5412 21.6489 38.3737C21.5108 38.2062 21.4741 37.9371 21.5399 37.5665L21.8377 35.8735C21.9036 35.5029 22.0341 35.2326 22.2305 35.0651C22.4281 34.8975 22.7107 34.8125 23.0806 34.8125H24.4021C24.7721 34.8125 25.0255 34.8975 25.1636 35.0651C25.3017 35.2326 25.3372 35.5029 25.2725 35.8735L24.9748 37.5665Z" fill="#FEFEFE"/>
<path id="Fill 111" fill-rule="evenodd" clip-rule="evenodd" d="M27.414 38.5312C26.8312 38.5944 26.3209 38.6249 25.8843 38.6249C25.6765 38.6249 25.5214 38.5606 25.4181 38.4319C25.3147 38.3044 25.2817 38.1328 25.318 37.9195L25.5038 36.8372C25.5445 36.6013 25.6402 36.4185 25.7942 36.2853C25.947 36.1521 26.1373 36.0833 26.3671 36.0833H27.8341L27.7252 36.7198H26.5101C26.388 36.7198 26.3154 36.7819 26.2945 36.9083L26.1362 37.8247C26.1285 37.8721 26.1373 37.9116 26.1626 37.9432C26.1867 37.9748 26.223 37.9906 26.2692 37.9906C26.5442 37.9906 26.9609 37.9669 27.5196 37.9195L27.414 38.5312Z" fill="#FEFEFE"/>
<path id="Fill 113" fill-rule="evenodd" clip-rule="evenodd" d="M29.935 37.0187L30.109 36.0833H30.9971L30.5238 38.6249H29.6358L29.8146 37.6653H28.901L28.7222 38.6249H27.8341L28.3086 36.0833H29.1966L29.0214 37.0187H29.935Z" fill="#FEFEFE"/>
<path id="Fill 115" fill-rule="evenodd" clip-rule="evenodd" d="M33.2007 36.8913C33.2248 36.7694 33.1677 36.7062 33.0269 36.7062H32.3912C32.2504 36.7062 32.1667 36.7694 32.1426 36.8913L31.9561 37.8169C31.9307 37.9388 31.9891 38.0009 32.1299 38.0009H32.7655C32.9064 38.0009 32.9888 37.9388 33.0142 37.8169L33.2007 36.8913ZM33.9264 37.8856C33.8795 38.1161 33.7678 38.299 33.5915 38.4298C33.4151 38.5606 33.1944 38.6249 32.9305 38.6249H31.7137C31.4486 38.6249 31.2545 38.5606 31.1314 38.4298C31.0071 38.299 30.9703 38.1161 31.0159 37.8856L31.2304 36.8226C31.2773 36.5909 31.3889 36.4102 31.5653 36.2794C31.7417 36.1475 31.9624 36.0833 32.2263 36.0833H33.443C33.7082 36.0833 33.901 36.1475 34.0254 36.2794C34.1484 36.4102 34.1878 36.5909 34.1408 36.8226L33.9264 37.8856Z" fill="#FEFEFE"/>
<path id="Fill 117" fill-rule="evenodd" clip-rule="evenodd" d="M36.3202 36.8265C36.3294 36.7794 36.3202 36.7391 36.2897 36.7069C36.2592 36.6747 36.2169 36.6585 36.1612 36.6585H35.5268L35.4394 37.09H36.0738C36.1281 37.09 36.1784 37.0739 36.2208 37.0417C36.2645 37.0106 36.291 36.9704 36.3003 36.9232L36.3202 36.8265ZM36.287 37.8091C36.2963 37.7608 36.2857 37.7217 36.2553 37.6906C36.2248 37.6584 36.1824 37.6423 36.1281 37.6423H35.3268L35.2434 38.0496H36.0447C36.1003 38.0496 36.1493 38.0347 36.193 38.0013C36.2354 37.9702 36.2619 37.93 36.2725 37.8828L36.287 37.8091ZM36.2592 38.6249H34.16L34.6766 36.0833H36.6089C36.8565 36.0833 37.0433 36.1465 37.1704 36.2719C37.2976 36.3985 37.3453 36.54 37.3135 36.6977C37.2817 36.853 37.2168 36.9819 37.1188 37.0808C37.0221 37.1798 36.9002 37.2477 36.7532 37.2822C36.9135 37.3086 37.042 37.3777 37.1373 37.4939C37.234 37.6089 37.2631 37.7608 37.2247 37.953C37.185 38.1451 37.0764 38.3062 36.8976 38.4339C36.7188 38.5616 36.5056 38.6249 36.2592 38.6249Z" fill="#FEFEFE"/>
<path id="Fill 119" fill-rule="evenodd" clip-rule="evenodd" d="M38.6115 37.9779C38.8036 37.9779 39.0284 37.9468 39.2845 37.8848L39.342 37.6078H38.5527C38.4978 37.6078 38.4494 37.6233 38.4063 37.6543C38.3632 37.6854 38.337 37.7241 38.3279 37.7707L38.3187 37.8161C38.3083 37.8626 38.3187 37.9025 38.3488 37.9313C38.3789 37.9624 38.4207 37.9779 38.4756 37.9779H38.6115ZM37.9777 36.1752C38.6559 36.1143 39.261 36.0833 39.7955 36.0833C40.0425 36.0833 40.228 36.1464 40.3496 36.2727C40.4724 36.399 40.5129 36.5685 40.4685 36.7768L40.0934 38.5784H39.2492L39.2427 38.3468C39.0519 38.4432 38.8624 38.513 38.6742 38.5573C38.4847 38.6017 38.3279 38.6249 38.205 38.6249H38.0142C37.7673 38.6249 37.5817 38.5607 37.4588 38.4343C37.336 38.3091 37.2968 38.1407 37.3399 37.9313L37.383 37.7241C37.4275 37.5136 37.5359 37.3463 37.7124 37.22C37.8875 37.0937 38.0979 37.0317 38.3449 37.0317H39.4622L39.5001 36.8466C39.5106 36.8012 39.5001 36.7613 39.4701 36.7303C39.44 36.6993 39.3982 36.6838 39.3433 36.6838C39.1081 36.6838 38.8441 36.6937 38.5553 36.7115C38.2665 36.7303 38.0338 36.7447 37.8574 36.7547L37.9777 36.1752Z" fill="#FEFEFE"/>
<path id="Fill 121" fill-rule="evenodd" clip-rule="evenodd" d="M42.5869 37.0187L42.7609 36.0833H43.649L43.1757 38.6249H42.2877L42.4665 37.6653H41.5529L41.3741 38.6249H40.486L40.9604 36.0833H41.8485L41.6745 37.0187H42.5869Z" fill="#FEFEFE"/>
<path id="Fill 123" fill-rule="evenodd" clip-rule="evenodd" d="M45.8526 36.8913C45.8767 36.7694 45.8196 36.7062 45.6788 36.7062H45.0431C44.9023 36.7062 44.8186 36.7694 44.7945 36.8913L44.608 37.8169C44.5826 37.9388 44.6409 38.0009 44.7818 38.0009H45.4174C45.5582 38.0009 45.6407 37.9388 45.6661 37.8169L45.8526 36.8913ZM46.5783 37.8856C46.5314 38.1161 46.4197 38.299 46.2434 38.4298C46.067 38.5606 45.8462 38.6249 45.5823 38.6249H44.3656C44.1005 38.6249 43.9063 38.5606 43.7833 38.4298C43.6589 38.299 43.6221 38.1161 43.6678 37.8856L43.8822 36.8226C43.9292 36.5909 44.0408 36.4102 44.2172 36.2794C44.3935 36.1475 44.6143 36.0833 44.8782 36.0833H46.0949C46.3601 36.0833 46.5529 36.1475 46.6773 36.2794C46.8003 36.4102 46.8397 36.5909 46.7927 36.8226L46.5783 37.8856Z" fill="#FEFEFE"/>
<path id="Fill 125" fill-rule="evenodd" clip-rule="evenodd" d="M50.2372 36.8265C50.2465 36.7794 50.2372 36.7391 50.2067 36.7069C50.1763 36.6747 50.1339 36.6585 50.0783 36.6585H49.4439L49.3565 37.09H49.9909C50.0452 37.09 50.0955 37.0739 50.1379 37.0417C50.1816 37.0106 50.2081 36.9704 50.2173 36.9232L50.2372 36.8265ZM50.2041 37.8091C50.2134 37.7608 50.2028 37.7217 50.1723 37.6906C50.1418 37.6584 50.0995 37.6423 50.0452 37.6423H49.2439L49.1605 38.0496H49.9617C50.0174 38.0496 50.0664 38.0347 50.1101 38.0013C50.1524 37.9702 50.1789 37.93 50.1895 37.8828L50.2041 37.8091ZM50.1763 38.6249H48.0771L48.5936 36.0833H50.5259C50.7736 36.0833 50.9603 36.1465 51.0875 36.2719C51.2146 36.3985 51.2623 36.54 51.2305 36.6977C51.1987 36.853 51.1338 36.9819 51.0358 37.0808C50.9391 37.1798 50.8173 37.2477 50.6703 37.2822C50.8305 37.3086 50.959 37.3777 51.0544 37.4939C51.1511 37.6089 51.1802 37.7608 51.1418 37.953C51.1021 38.1451 50.9934 38.3062 50.8147 38.4339C50.6359 38.5616 50.4226 38.6249 50.1763 38.6249Z" fill="#FEFEFE"/>
<path id="Fill 127" fill-rule="evenodd" clip-rule="evenodd" d="M53.432 38.625L53.9403 35.6575L53.295 35.8757L53.1378 35.2474L54.1901 34.8125H55.0356L54.3828 38.625H53.432Z" fill="#FEFEFE"/>
<path id="Fill 129" fill-rule="evenodd" clip-rule="evenodd" d="M56.5082 36.5074C56.7026 36.5074 56.9118 36.4896 57.1332 36.454L57.2329 35.8726C57.2685 35.6593 57.1836 35.5539 56.9782 35.5539H56.5169C56.3126 35.5539 56.1921 35.6593 56.1552 35.8726L56.0789 36.322C56.069 36.3753 56.0789 36.4185 56.1072 36.454C56.1355 36.4896 56.1748 36.5074 56.2265 36.5074H56.5082ZM55.1587 37.8036C55.8538 37.8556 56.3446 37.8836 56.6325 37.8836C56.7112 37.8836 56.7777 37.8582 56.8318 37.8125C56.8859 37.7642 56.9204 37.6995 56.9339 37.6182L57.0151 37.1421C56.6719 37.2132 56.3754 37.2488 56.1256 37.2488H55.7664C55.5339 37.2488 55.3592 37.1752 55.2436 37.0317C55.1279 36.887 55.091 36.6927 55.1328 36.454L55.2497 35.7659C55.3051 35.4447 55.4244 35.2061 55.6089 35.0486C55.7922 34.8912 56.0518 34.8125 56.3877 34.8125H57.362C57.6979 34.8125 57.9304 34.8912 58.0608 35.0486C58.1912 35.2061 58.2294 35.4447 58.174 35.7659L57.8578 37.6182C57.7988 37.9636 57.6757 38.2187 57.4912 38.3812C57.3067 38.5437 57.0459 38.625 56.7112 38.625C56.2425 38.625 55.684 38.5895 55.0356 38.5196L55.1587 37.8036Z" fill="#FEFEFE"/>
<path id="Fill 131" fill-rule="evenodd" clip-rule="evenodd" d="M60.0248 38.625C59.4702 38.625 58.8607 38.5889 58.1986 38.5181L58.3169 37.7919C59.0424 37.846 59.5862 37.8731 59.9483 37.8731C60.0248 37.8731 60.0893 37.8473 60.1419 37.7997C60.1945 37.752 60.2279 37.6864 60.2411 37.604L60.2769 37.3902C60.3116 37.1752 60.2291 37.0683 60.0307 37.0683H58.9838L59.1069 36.3164H60.0535C60.253 36.3164 60.3702 36.2095 60.406 35.9945L60.4227 35.8863C60.4586 35.6726 60.3761 35.5644 60.1766 35.5644H58.7316L58.8547 34.8125H60.5494C60.8745 34.8125 61.1004 34.8923 61.2271 35.052C61.355 35.2116 61.3908 35.4537 61.3382 35.7795C61.3024 35.9945 61.2283 36.1683 61.1147 36.3035C61.0024 36.4374 60.8661 36.5314 60.7072 36.5842C60.9641 36.664 61.1147 36.8572 61.1613 37.1649C61.1757 37.2756 61.1721 37.4044 61.1482 37.5512L61.1386 37.604C61.0813 37.9542 60.9629 38.213 60.7825 38.3778C60.6032 38.5426 60.3498 38.625 60.0248 38.625Z" fill="#FEFEFE"/>
<path id="Fill 133" fill-rule="evenodd" clip-rule="evenodd" d="M63.8448 36.0102C63.7946 36.3171 63.6319 36.5849 63.3568 36.8095C63.2719 36.8801 63.181 36.9493 63.0829 37.0172L61.8748 37.8622H63.5458L63.4226 38.625H60.729L60.8964 37.5906L62.9202 36.1735L62.9645 35.9018C63.0004 35.6837 62.9178 35.574 62.7181 35.574H61.3222L61.4454 34.8125H63.041C63.3903 34.8125 63.6295 34.8974 63.7599 35.0698C63.8891 35.2422 63.9237 35.5204 63.8627 35.9018L63.8448 36.0102Z" fill="#FEFEFE"/>
<path id="Fill 135" fill-rule="evenodd" clip-rule="evenodd" d="M68.3201 36.0833L68.2054 36.7296H66.972L66.6359 38.6249H65.7897L66.2418 36.0833H68.3201Z" fill="#FEFEFE"/>
<path id="Fill 137" fill-rule="evenodd" clip-rule="evenodd" d="M67.9152 37.5916H68.8641L68.725 38.3872H67.7761L67.9152 37.5916Z" fill="#FEFEFE"/>
<path id="Fill 139" fill-rule="evenodd" clip-rule="evenodd" d="M32.3354 22.2861L32.2661 22.6852C32.1264 23.4846 31.6608 23.8837 30.8705 23.8837H27.5086L27.9969 21.0876H31.3588C32.1491 21.0876 32.475 21.4879 32.3354 22.2861ZM31.9521 27.877L31.8829 28.2773C31.7432 29.0755 31.2776 29.4746 30.4873 29.4746H26.532L27.0203 26.6797H30.9756C31.7659 26.6797 32.0918 27.0788 31.9521 27.877ZM32.8344 18.2915L21.3663 18.2963L20.8756 21.0876H24.438L22.4861 32.2707H30.9875C32.2793 32.2707 33.2821 31.9644 33.9948 31.3519C34.7087 30.7394 35.1791 29.7808 35.4071 28.4763C35.5027 27.9313 35.5194 27.4514 35.4597 27.039C35.2782 25.8936 34.6777 25.175 33.6617 24.882C34.1978 24.6818 34.6801 24.3322 35.1099 23.833C35.5397 23.335 35.825 22.6852 35.9635 21.887C36.176 20.6752 36.0291 19.7733 35.5265 19.1813C35.0239 18.5881 34.1261 18.2915 32.8344 18.2915Z" fill="#FEFEFE"/>
<path id="Fill 141" fill-rule="evenodd" clip-rule="evenodd" d="M47.4734 22.3521L46.3312 28.848C46.1881 29.6594 45.7111 30.065 44.9015 30.065H41.4575C40.6479 30.065 40.314 29.6594 40.4571 28.848L41.5994 22.3521C41.7424 21.5395 42.2194 21.1338 43.029 21.1338H46.473C47.2826 21.1338 47.6165 21.5395 47.4734 22.3521ZM47.7829 18.2915H42.7196C41.3009 18.2915 40.2149 18.6126 39.4603 19.2561C38.7057 19.8995 38.2043 20.9303 37.9536 22.3521L36.8113 28.848C36.5606 30.2685 36.7 31.3005 37.2284 31.9415C37.7567 32.5862 38.7302 32.9061 40.1477 32.9061H45.2109C46.6283 32.9061 47.7156 32.5862 48.4702 31.9415C49.2248 31.3005 49.7262 30.2685 49.9769 28.848L51.1192 22.3521C51.3699 20.9303 51.2305 19.8995 50.7022 19.2561C50.1738 18.6126 49.2003 18.2915 47.7829 18.2915Z" fill="#FEFEFE"/>
<path id="Fill 143" fill-rule="evenodd" clip-rule="evenodd" d="M62.0203 18.2915L55.7558 26.8782L57.259 18.2915H53.6884L51.2401 32.2707H55.0096L61.274 23.6828L59.7708 32.2707H63.3414L65.7897 18.2915H62.0203Z" fill="#FEFEFE"/>
<path id="Fill 145" fill-rule="evenodd" clip-rule="evenodd" d="M76.5511 22.2861L76.1919 24.2827C76.0479 25.0809 75.5681 25.4812 74.7537 25.4812H70.6789L71.4688 21.0876H75.5447C76.3592 21.0876 76.6951 21.4879 76.5511 22.2861ZM79.7979 19.2404C79.2676 18.6086 78.2883 18.2915 76.8612 18.2915H68.3045L65.7897 32.2707H69.4572L70.1757 28.2773H75.0649C76.4921 28.2773 77.5846 27.9602 78.3437 27.3284C79.1028 26.6954 79.6072 25.679 79.8594 24.2827L80.2186 22.2861C80.4696 20.8886 80.3294 19.8734 79.7979 19.2404Z" fill="#FEFEFE"/>
</g>
</g>
<defs>
<linearGradient id="paint0_linear_0_1302" x1="193.251" y1="40.1801" x2="110.287" y2="-74.0581" gradientUnits="userSpaceOnUse">
<stop stop-color="#1B34BF"/>
<stop offset="1" stop-color="#283891"/>
</linearGradient>
</defs>
</svg>
